<svg xmlns="http://www.w3.org/2000/svg" xmlns:xlink="http://www.w3.org/1999/xlink" viewBox="0 0 675.1 771.445">
  <defs>
    <style>
      .cls-1 {
        fill: #8400ff;
      }

      .cls-2 {
        fill: #fcb1ff;
      }

      .cls-3 {
        clip-path: url(#clip-path);
      }

      .cls-4 {
        fill: url(#linear-gradient);
      }

      .cls-5 {
        fill: url(#linear-gradient-2);
      }

      .cls-6 {
        fill: url(#linear-gradient-3);
      }

      .cls-7 {
        fill: url(#linear-gradient-4);
      }

      .cls-8 {
        filter: url(#Ellipse_13);
      }

      .cls-9 {
        filter: url(#Path_13);
      }

      .cls-10 {
        filter: url(#Path_12);
      }

      .cls-11 {
        filter: url(#Path_16);
      }
    </style>
    <clipPath id="clip-path">
      <path id="Path_14" data-name="Path 14" class="cls-1" d="M0,0H675.1V764.875c-97.819-.045-87.765-16.852-172.949-16.852S410.937,764.875,329.7,764.875s-81.8-16.852-165.4-16.852S59.261,765.112,0,764.875Z" transform="translate(1428 -2041)"/>
    </clipPath>
    <linearGradient id="linear-gradient" x1="0.349" y1="0.126" x2="0.744" y2="0.935" gradientUnits="objectBoundingBox">
      <stop offset="0" stop-color="#ecbefc"/>
      <stop offset="0.542" stop-color="#5a3dea"/>
      <stop offset="1" stop-color="#4320ef"/>
    </linearGradient>
    <filter id="Path_16" x="-767.25" y="-767.25" width="1752.102" height="1752.102" filterUnits="userSpaceOnUse">
      <feOffset dx="3" dy="3" input="SourceAlpha"/>
      <feGaussianBlur stdDeviation="1.5" result="blur"/>
      <feFlood flood-opacity="0.031"/>
      <feComposite operator="in" in2="blur"/>
      <feComposite in="SourceGraphic"/>
    </filter>
    <linearGradient id="linear-gradient-2" x1="0.246" y1="-0.029" x2="0.923" y2="1.012" gradientUnits="objectBoundingBox">
      <stop offset="0" stop-color="#fdceff"/>
      <stop offset="0.715" stop-color="#714ee7"/>
      <stop offset="1" stop-color="#4c2ce1"/>
    </linearGradient>
    <filter id="Path_12" x="-471.064" y="-471.064" width="955.352" height="955.352" filterUnits="userSpaceOnUse">
      <feOffset dx="3" dy="3" input="SourceAlpha"/>
      <feGaussianBlur stdDeviation="1.5" result="blur-2"/>
      <feFlood flood-opacity="0.031"/>
      <feComposite operator="in" in2="blur-2"/>
      <feComposite in="SourceGraphic"/>
    </filter>
    <linearGradient id="linear-gradient-3" x1="0.223" y1="0.047" x2="0.875" y2="1.124" gradientUnits="objectBoundingBox">
      <stop offset="0" stop-color="#fdceff"/>
      <stop offset="1" stop-color="#784eeb"/>
    </linearGradient>
    <filter id="Path_13" x="-290.462" y="-290.462" width="594.149" height="594.148" filterUnits="userSpaceOnUse">
      <feOffset dx="3" dy="3" input="SourceAlpha"/>
      <feGaussianBlur stdDeviation="1.5" result="blur-3"/>
      <feFlood flood-opacity="0.031"/>
      <feComposite operator="in" in2="blur-3"/>
      <feComposite in="SourceGraphic"/>
    </filter>
    <linearGradient id="linear-gradient-4" x1="0.342" y1="0.25" x2="0.939" y2="1.039" gradientUnits="objectBoundingBox">
      <stop offset="0" stop-color="#fdceff"/>
      <stop offset="1" stop-color="#9e73ee"/>
    </linearGradient>
    <filter id="Ellipse_13" x="-182.102" y="-182.101" width="370.203" height="370.203" filterUnits="userSpaceOnUse">
      <feOffset dx="3" dy="3" input="SourceAlpha"/>
      <feGaussianBlur stdDeviation="1.5" result="blur-4"/>
      <feFlood flood-opacity="0.031"/>
      <feComposite operator="in" in2="blur-4"/>
      <feComposite in="SourceGraphic"/>
    </filter>
  </defs>
  <g id="Group_8" data-name="Group 8" transform="translate(-1428 2041)">
    <path id="Path_15" data-name="Path 15" class="cls-2" d="M0,0H672.171l1.782,754.936c-78.466,0-92.583,16.415-172.065,16.415s-84.047-14-170.262-14-82.434,15.438-169.667,14S83.272,755.471.593,755.471Z" transform="translate(1428 -2041)"/>
    <g id="Mask_Group_4" data-name="Mask Group 4" class="cls-3">
      <g id="Group_7" data-name="Group 7" transform="translate(1938.25 -2306.75)">
        <g class="cls-11" transform="matrix(1, 0, 0, 1, -510.25, 265.75)">
          <path id="Path_16-2" data-name="Path 16" class="cls-4" d="M871.551,0C1352.895,0,1743.1,390.207,1743.1,871.551S1352.895,1743.1,871.551,1743.1,0,1352.895,0,871.551,390.207,0,871.551,0Z" transform="translate(-765.75 -765.75)"/>
        </g>
        <g class="cls-10" transform="matrix(1, 0, 0, 1, -510.25, 265.75)">
          <path id="Path_12-2" data-name="Path 12" class="cls-5" d="M473.176,0C734.5,0,946.352,211.848,946.352,473.176S734.5,946.352,473.176,946.352,0,734.5,0,473.176,211.848,0,473.176,0Z" transform="translate(-469.56 -469.56)"/>
        </g>
        <g class="cls-9" transform="matrix(1, 0, 0, 1, -510.25, 265.75)">
          <path id="Path_13-2" data-name="Path 13" class="cls-6" d="M292.574,0C454.159,0,585.148,130.99,585.148,292.574S454.159,585.148,292.574,585.148,0,454.159,0,292.574,130.99,0,292.574,0Z" transform="translate(-288.96 -288.96)"/>
        </g>
        <g class="cls-8" transform="matrix(1, 0, 0, 1, -510.25, 265.75)">
          <circle id="Ellipse_13-2" data-name="Ellipse 13" class="cls-7" cx="180.601" cy="180.601" r="180.601" transform="translate(-180.6 -180.6)"/>
        </g>
      </g>
    </g>
  </g>
</svg>
