<svg xmlns="http://www.w3.org/2000/svg" viewBox="0 0 43.871 43.871">
  <defs>
    <style>
      .cls-1 {
        fill: #256df7;
      }
    </style>
  </defs>
  <path id="dribbble" class="cls-1" d="M29.936,8A21.936,21.936,0,1,0,51.871,29.936,21.96,21.96,0,0,0,29.936,8Zm14.5,10.116A18.647,18.647,0,0,1,48.67,29.787a43.785,43.785,0,0,0-13.047-.6c-.509-1.242-.989-2.334-1.647-3.681,6.927-2.828,10.067-6.853,10.462-7.388Zm-2.083-2.167c-.337.48-3.157,4.271-9.82,6.768a100.011,100.011,0,0,0-6.991-10.968A18.688,18.688,0,0,1,42.356,15.949ZM21.97,13.008a119.552,119.552,0,0,1,6.947,10.836,69.886,69.886,0,0,1-17.321,2.283A18.8,18.8,0,0,1,21.97,13.008ZM11.2,29.964c0-.192,0-.382.01-.573a69.114,69.114,0,0,0,19.256-2.666c.536,1.05,1.049,2.115,1.519,3.18-6.775,1.908-12.931,7.388-15.968,12.587A18.661,18.661,0,0,1,11.2,29.964Zm7.236,14.781c1.957-4,7.269-9.165,14.822-11.742a77.882,77.882,0,0,1,4,14.208A18.7,18.7,0,0,1,18.435,44.745ZM40.4,45.5a80.868,80.868,0,0,0-3.64-13.359,27.5,27.5,0,0,1,11.671.8A18.769,18.769,0,0,1,40.4,45.5Z" transform="translate(-8 -8)"/>
</svg>
