<svg xmlns="http://www.w3.org/2000/svg" viewBox="0 0 44.995 43.871">
  <defs>
    <style>
      .cls-1 {
        fill: #256df7;
      }
    </style>
  </defs>
  <path id="github" class="cls-1" d="M15.05,43.325c0,.181-.209.327-.472.327-.3.027-.508-.118-.508-.327,0-.181.209-.327.472-.327C14.814,42.971,15.05,43.116,15.05,43.325Zm-2.821-.408c-.064.181.118.39.39.445a.426.426,0,0,0,.562-.181c.054-.181-.118-.39-.39-.472a.466.466,0,0,0-.562.209Zm4.01-.154c-.263.063-.445.236-.417.445.027.181.263.3.535.236s.445-.236.417-.417S16.5,42.735,16.238,42.762ZM22.207,8A21.753,21.753,0,0,0,0,30.135a22.743,22.743,0,0,0,15.376,21.7c1.161.209,1.569-.508,1.569-1.1,0-.562-.027-3.665-.027-5.57,0,0-6.35,1.361-7.684-2.7,0,0-1.034-2.64-2.522-3.32,0,0-2.077-1.424.145-1.4a4.789,4.789,0,0,1,3.5,2.34c1.987,3.5,5.316,2.495,6.613,1.9a5.042,5.042,0,0,1,1.451-3.057c-5.071-.562-10.187-1.3-10.187-10.024a6.875,6.875,0,0,1,2.141-5.343,8.571,8.571,0,0,1,.236-6.16c1.9-.59,6.259,2.449,6.259,2.449a21.431,21.431,0,0,1,11.394,0S32.631,16.8,34.527,17.4a8.567,8.567,0,0,1,.236,6.16c1.451,1.606,2.34,2.858,2.34,5.343,0,8.754-5.343,9.453-10.414,10.024a5.365,5.365,0,0,1,1.542,4.209c0,3.057-.027,6.84-.027,7.584,0,.59.417,1.306,1.569,1.1A22.534,22.534,0,0,0,45,30.135C45,17.552,34.79,8,22.207,8ZM8.818,39.288c-.118.091-.091.3.064.472.145.145.354.209.472.091.118-.091.091-.3-.064-.472C9.144,39.234,8.936,39.17,8.818,39.288Zm-.98-.735c-.064.118.027.263.209.354a.27.27,0,0,0,.39-.064c.064-.118-.027-.263-.209-.354C8.047,38.435,7.9,38.463,7.838,38.553Zm2.939,3.23c-.145.118-.091.39.118.562.209.209.472.236.59.091.118-.118.064-.39-.118-.562C11.167,41.665,10.9,41.638,10.777,41.783ZM9.743,40.449c-.145.091-.145.327,0,.535s.39.3.508.209a.414.414,0,0,0,0-.562C10.124,40.422,9.888,40.331,9.743,40.449Z" transform="translate(0 -8)"/>
</svg>
