<svg xmlns="http://www.w3.org/2000/svg" xmlns:xlink="http://www.w3.org/1999/xlink" viewBox="0 0 1280 800">
  <defs>
    <style>
      .cls-1 {
        clip-path: url(#clip-Landing_-_Large);
      }

      .cls-2 {
        fill: rgba(83,47,236,0.35);
      }

      .cls-3 {
        fill: rgba(253,206,255,0.43);
      }

      .cls-4 {
        fill: #24195f;
      }
    </style>
    <clipPath id="clip-Landing_-_Large">
      <rect width="1280" height="800"/>
    </clipPath>
  </defs>
  <g id="Landing_-_Large" data-name="Landing - Large" class="cls-1">
    <rect class="cls-4" width="1280" height="800"/>
    <g id="Group_9" data-name="Group 9" transform="translate(36.313 -57)">
      <path id="Path_16" data-name="Path 16" class="cls-2" d="M61.981.462l556.8,4.151c34.231.255,62.188,28.559,62.443,63.219l3.912,531.341c.255,34.66-27.288,62.55-61.519,62.295l-556.8-4.151C32.586,657.061,4.629,628.757,4.374,594.1L.462,62.757C.207,28.1,27.75.207,61.981.462Z" transform="translate(793.778 338.811) rotate(25)"/>
      <path id="Path_17" data-name="Path 17" class="cls-3" d="M61.981.462l556.8,4.151c34.231.255,62.188,28.559,62.443,63.219l4.166,565.857c.255,34.66-27.288,62.55-61.519,62.295l-556.8-4.151c-34.231-.255-62.188-28.559-62.443-63.219L.462,62.757C.207,28.1,27.75.207,61.981.462Z" transform="translate(979.076 305.225) rotate(25)"/>
    </g>
  </g>
</svg>
