<svg xmlns="http://www.w3.org/2000/svg" xmlns:xlink="http://www.w3.org/1999/xlink" viewBox="0 0 1280 800">
  <defs>
    <style>
      .cls-1 {
        clip-path: url(#clip-Landing_-_Large);
      }

      .cls-2 {
        fill: rgba(83,47,236,0.35);
      }

      .cls-3 {
        fill: rgba(253,206,255,0.43);
      }

      .cls-4 {
        fill: #24195f;
      }

      .cls-5 {
        filter: url(#Path_17);
      }

      .cls-6 {
        filter: url(#Path_16);
      }
    </style>
    <filter id="Path_16" x="399.459" y="130.922" width="1196.883" height="1185.435" filterUnits="userSpaceOnUse">
      <feOffset dx="-3" dy="-3" input="SourceAlpha"/>
      <feGaussianBlur stdDeviation="49.5" result="blur"/>
      <feFlood flood-opacity="0.043"/>
      <feComposite operator="in" in2="blur"/>
      <feComposite in="SourceGraphic"/>
    </filter>
    <filter id="Path_17" x="570.17" y="97.337" width="1211.701" height="1216.825" filterUnits="userSpaceOnUse">
      <feOffset dx="-3" dy="-3" input="SourceAlpha"/>
      <feGaussianBlur stdDeviation="49.5" result="blur-2"/>
      <feFlood flood-opacity="0.043"/>
      <feComposite operator="in" in2="blur-2"/>
      <feComposite in="SourceGraphic"/>
    </filter>
    <clipPath id="clip-Landing_-_Large">
      <rect width="1280" height="800"/>
    </clipPath>
  </defs>
  <g id="Landing_-_Large" data-name="Landing - Large" class="cls-1">
    <rect class="cls-4" width="1280" height="800"/>
    <g id="Group_9" data-name="Group 9" transform="translate(36.313 -57)">
      <g class="cls-6" transform="matrix(1, 0, 0, 1, -36.31, 57)">
        <path id="Path_16-2" data-name="Path 16" class="cls-2" d="M61.981.462l556.8,4.151c34.231.255,62.188,28.559,62.443,63.219l3.912,531.341c.255,34.66-27.288,62.55-61.519,62.295l-556.8-4.151C32.586,657.061,4.629,628.757,4.374,594.1L.462,62.757C.207,28.1,27.75.207,61.981.462Z" transform="translate(830.09 281.81) rotate(25)"/>
      </g>
      <g class="cls-5" transform="matrix(1, 0, 0, 1, -36.31, 57)">
        <path id="Path_17-2" data-name="Path 17" class="cls-3" d="M61.981.462l556.8,4.151c34.231.255,62.188,28.559,62.443,63.219l4.166,565.857c.255,34.66-27.288,62.55-61.519,62.295l-556.8-4.151c-34.231-.255-62.188-28.559-62.443-63.219L.462,62.757C.207,28.1,27.75.207,61.981.462Z" transform="translate(1015.39 248.23) rotate(25)"/>
      </g>
    </g>
  </g>
</svg>
