<svg xmlns="http://www.w3.org/2000/svg" viewBox="0 0 44 44">
  <defs>
    <style>
      .cls-1 {
        fill: #256df7;
      }
    </style>
  </defs>
  <path id="linkedin" class="cls-1" d="M40.857,32H3.133A3.156,3.156,0,0,0,0,35.172V72.828A3.156,3.156,0,0,0,3.133,76H40.857A3.165,3.165,0,0,0,44,72.828V35.172A3.165,3.165,0,0,0,40.857,32ZM13.3,69.714H6.777v-21h6.531v21ZM10.037,45.848a3.781,3.781,0,1,1,3.781-3.781A3.783,3.783,0,0,1,10.037,45.848ZM37.744,69.714H31.222V59.5c0-2.436-.049-5.569-3.388-5.569-3.4,0-3.919,2.652-3.919,5.392V69.714H17.394v-21H23.65v2.868h.088A6.869,6.869,0,0,1,29.916,48.2c6.6,0,7.828,4.351,7.828,10.008Z" transform="translate(0 -32)"/>
</svg>
