<svg xmlns="http://www.w3.org/2000/svg" xmlns:xlink="http://www.w3.org/1999/xlink" viewBox="0 0 623 768">
  <defs>
    <style>
      .cls-1 {
        fill: none;
      }

      .cls-2 {
        clip-path: url(#clip-path);
      }

      .cls-3 {
        fill: url(#linear-gradient);
      }

      .cls-4 {
        fill: url(#linear-gradient-2);
      }

      .cls-5 {
        fill: url(#linear-gradient-3);
      }

      .cls-6 {
        fill: url(#linear-gradient-4);
      }

      .cls-7 {
        filter: url(#Ellipse_11);
      }

      .cls-8 {
        filter: url(#Path_11);
      }

      .cls-9 {
        filter: url(#Path_10);
      }

      .cls-10 {
        filter: url(#Ellipse_10);
      }
    </style>
    <clipPath id="clip-path">
      <rect id="Rectangle_6" data-name="Rectangle 6" class="cls-1" width="623" height="768" transform="translate(-1547 -607)"/>
    </clipPath>
    <linearGradient id="linear-gradient" x1="0.349" y1="0.126" x2="0.744" y2="0.935" gradientUnits="objectBoundingBox">
      <stop offset="0" stop-color="#ecbefc"/>
      <stop offset="0.621" stop-color="#714ce7"/>
      <stop offset="1" stop-color="#4320ef"/>
    </linearGradient>
    <filter id="Ellipse_10" x="-1073.25" y="-1073.25" width="2152.5" height="2152.5" filterUnits="userSpaceOnUse">
      <feOffset dx="3" dy="3" input="SourceAlpha"/>
      <feGaussianBlur stdDeviation="1.5" result="blur"/>
      <feFlood flood-opacity="0.031"/>
      <feComposite operator="in" in2="blur"/>
      <feComposite in="SourceGraphic"/>
    </filter>
    <linearGradient id="linear-gradient-2" x1="0.246" y1="-0.029" x2="0.928" y2="1.161" gradientUnits="objectBoundingBox">
      <stop offset="0" stop-color="#fdceff"/>
      <stop offset="1" stop-color="#4c2ce1"/>
    </linearGradient>
    <filter id="Path_10" x="-471.064" y="-471.064" width="955.352" height="955.352" filterUnits="userSpaceOnUse">
      <feOffset dx="3" dy="3" input="SourceAlpha"/>
      <feGaussianBlur stdDeviation="1.5" result="blur-2"/>
      <feFlood flood-opacity="0.031"/>
      <feComposite operator="in" in2="blur-2"/>
      <feComposite in="SourceGraphic"/>
    </filter>
    <linearGradient id="linear-gradient-3" x1="0.223" y1="0.047" x2="0.875" y2="1.124" gradientUnits="objectBoundingBox">
      <stop offset="0" stop-color="#fdceff"/>
      <stop offset="1" stop-color="#784eeb"/>
    </linearGradient>
    <filter id="Path_11" x="-290.462" y="-290.462" width="594.148" height="594.149" filterUnits="userSpaceOnUse">
      <feOffset dx="3" dy="3" input="SourceAlpha"/>
      <feGaussianBlur stdDeviation="1.5" result="blur-3"/>
      <feFlood flood-opacity="0.031"/>
      <feComposite operator="in" in2="blur-3"/>
      <feComposite in="SourceGraphic"/>
    </filter>
    <linearGradient id="linear-gradient-4" x1="0.342" y1="0.25" x2="0.939" y2="1.039" gradientUnits="objectBoundingBox">
      <stop offset="0" stop-color="#fdceff"/>
      <stop offset="1" stop-color="#9e73ee"/>
    </linearGradient>
    <filter id="Ellipse_11" x="-182.102" y="-182.101" width="370.203" height="370.203" filterUnits="userSpaceOnUse">
      <feOffset dx="3" dy="3" input="SourceAlpha"/>
      <feGaussianBlur stdDeviation="1.5" result="blur-4"/>
      <feFlood flood-opacity="0.031"/>
      <feComposite operator="in" in2="blur-4"/>
      <feComposite in="SourceGraphic"/>
    </filter>
  </defs>
  <g id="Mask_Group_3" data-name="Mask Group 3" class="cls-2" transform="translate(1547 607)">
    <g id="Group_6" data-name="Group 6" transform="translate(-1036.75 -872.75)">
      <g class="cls-10" transform="matrix(1, 0, 0, 1, -510.25, 265.75)">
        <circle id="Ellipse_10-2" data-name="Ellipse 10" class="cls-3" cx="1071.75" cy="1071.75" r="1071.75" transform="translate(-1071.75 -1071.75)"/>
      </g>
      <g class="cls-9" transform="matrix(1, 0, 0, 1, -510.25, 265.75)">
        <path id="Path_10-2" data-name="Path 10" class="cls-4" d="M473.176,0C734.5,0,946.352,211.848,946.352,473.176S734.5,946.352,473.176,946.352,0,734.5,0,473.176,211.848,0,473.176,0Z" transform="translate(-469.56 -469.56)"/>
      </g>
      <g class="cls-8" transform="matrix(1, 0, 0, 1, -510.25, 265.75)">
        <path id="Path_11-2" data-name="Path 11" class="cls-5" d="M292.574,0C454.159,0,585.148,130.99,585.148,292.574S454.159,585.148,292.574,585.148,0,454.159,0,292.574,130.99,0,292.574,0Z" transform="translate(-288.96 -288.96)"/>
      </g>
      <g class="cls-7" transform="matrix(1, 0, 0, 1, -510.25, 265.75)">
        <circle id="Ellipse_11-2" data-name="Ellipse 11" class="cls-6" cx="180.601" cy="180.601" r="180.601" transform="translate(-180.6 -180.6)"/>
      </g>
    </g>
  </g>
</svg>
